# xmcd
# Copyright (C) 1995-1998 Ti Kan
#
# Track frame offsets:
#       150
#       17089
#       35683
#       49620
#       70095
#       85436
#       104389
#       119332
#       137581
#       151597
#       168257
#       187037
#       203076
#       218343
#
# Disc length: 3654 seconds
#
# Revision: 0
# Processed by: cddbd v1.5.1PL0 Copyright (c) Steve Scherf et al.
# Submitted via: CD-Transfer v1.0
#
DISCID=b50e440e
DTITLE=Rämblers - Glärig
DYEAR=2005
DGENRE=
TTITLE0=So Weni Bi
TTITLE1=Friitig
TTITLE2=Dett Wo Jede Jede Kännt
TTITLE3=Jetz Oder Nie
TTITLE4=Dini Auge
TTITLE5=Heimetgfühl
TTITLE6=Schtärndli
TTITLE7=Schtammbeiz
TTITLE8=Glarnerland
TTITLE9=Träum Süess
TTITLE10=Säntepuur
TTITLE11=Wänn Du Mich Bruchsch
TTITLE12=Schtruube Tag
TTITLE13=Schteets I Truure
EXTD=
EXTT0=
EXTT1=
EXTT2=
EXTT3=
EXTT4=
EXTT5=
EXTT6=
EXTT7=
EXTT8=
EXTT9=
EXTT10=
EXTT11=
EXTT12=
EXTT13=
PLAYORDER=
